<?xml version="1.0" encoding="UTF-8"?>
<svg version="1.1" xmlns="http://www.w3.org/2000/svg" width="129" height="47">
<path d="M0 0 C3.3 0 6.6 0 10 0 C10.98862211 3.95448845 11.32934256 7.70605624 11.5625 11.75 C11.60568359 12.44738281 11.64886719 13.14476562 11.69335938 13.86328125 C11.79889596 15.57531922 11.8998991 17.28763561 12 19 C12.13277344 17.87980469 12.26554687 16.75960938 12.40234375 15.60546875 C12.58056569 14.13279271 12.75896011 12.66013753 12.9375 11.1875 C13.06801758 10.08051758 13.06801758 10.08051758 13.20117188 8.95117188 C13.58216546 5.83266879 14.00369374 2.98891878 15 0 C18.3 0 21.6 0 25 0 C25.66 5.28 26.32 10.56 27 16 C27.66 10.72 28.32 5.44 29 0 C32.63 0 36.26 0 40 0 C38.35 14.85 36.7 29.7 35 45 C30.71 45 26.42 45 22 45 C21.34 39.72 20.68 34.44 20 29 C19.01 34.28 18.02 39.56 17 45 C13.04 45 9.08 45 5 45 C3.47677336 34.70298788 1.97932935 24.40693295 0.8125 14.0625 C0.72887207 13.33691895 0.64524414 12.61133789 0.55908203 11.86376953 C0.1249952 7.8897746 -0.08131215 3.99680471 0 0 Z " fill="#F9A126" transform="translate(88,1)"/>
<path d="M0 0 C3.96 0 7.92 0 12 0 C12.99 7.26 13.98 14.52 15 22 C16.60068712 20.39931288 16.44982707 18.51647303 16.75390625 16.30859375 C16.88603516 15.36435547 17.01816406 14.42011719 17.15429688 13.44726562 C17.28900391 12.45404297 17.42371094 11.46082031 17.5625 10.4375 C17.70107422 9.44041016 17.83964844 8.44332031 17.98242188 7.41601562 C18.32535575 4.94452664 18.66315353 2.47232601 19 0 C22.96 0 26.92 0 31 0 C30.67386719 1.82402344 30.34773438 3.64804688 30.01171875 5.52734375 C27.6605322 18.68247095 25.31544332 31.83853271 23 45 C18.05 45 13.1 45 8 45 C6.85839034 38.91318626 5.71911652 32.82594182 4.58203125 26.73828125 C4.19465721 24.66622012 3.8066385 22.59427941 3.41796875 20.52246094 C2.86029335 17.54914057 2.30491719 14.57539871 1.75 11.6015625 C1.57500977 10.67131256 1.40001953 9.74106262 1.21972656 8.78262329 C1.05956055 7.92188202 0.89939453 7.06114075 0.734375 6.17431641 C0.59225586 5.41486725 0.45013672 4.65541809 0.30371094 3.87295532 C0 2 0 2 0 0 Z " fill="#F9A126" transform="translate(2,1)"/>
<path d="M0 0 C7.26 0 14.52 0 22 0 C22 2.97 22 5.94 22 9 C18.37 9 14.74 9 11 9 C11 11.97 11 14.94 11 18 C14.3 18 17.6 18 21 18 C21 20.64 21 23.28 21 26 C17.7 26 14.4 26 11 26 C11 29.3 11 32.6 11 36 C14.63 36 18.26 36 22 36 C22 38.97 22 41.94 22 45 C14.74 45 7.48 45 0 45 C0 30.15 0 15.3 0 0 Z " fill="#F9A126" transform="translate(60,1)"/>
<path d="M0 0 C3.63 0 7.26 0 11 0 C11 14.85 11 29.7 11 45 C7.37 45 3.74 45 0 45 C0 30.15 0 15.3 0 0 Z " fill="#F9A126" transform="translate(39,1)"/>
</svg>
